<svg width="24" height="25" viewBox="0 0 24 25" fill="none" xmlns="http://www.w3.org/2000/svg">
<path d="M16.3 4.6001C14.6 4.6001 13.1 5.28796 12 6.56541C10.9 5.28796 9.4 4.6001 7.7 4.6001C4.6 4.6001 2 7.15501 2 10.2013C2 10.3978 2 10.5943 2 10.7909C2.4 15.4094 7.4 19.2417 10.3 21.1088C10.8 21.4036 11.4 21.6001 12 21.6001C12.6 21.6001 13.2 21.4036 13.7 21.1088C16.6 19.2417 21.6 15.4094 22 10.8891C22 10.6926 22 10.4961 22 10.2995C22 7.15501 19.4 4.6001 16.3 4.6001ZM20 10.5943C19.7 14.525 14.7 18.0625 12.6 19.34C12.2 19.5365 11.8 19.5365 11.4 19.34C9.3 17.9643 4.4 14.4267 4 10.4961C4 10.4961 4 10.2995 4 10.2013C4 8.23593 5.7 6.56541 7.7 6.56541C9.2 6.56541 10.5 7.44981 11.1 8.72726C11.2 9.12033 11.6 9.31686 12 9.31686C12.4 9.31686 12.8 9.12033 12.9 8.72726C13.5 7.44981 14.8 6.56541 16.3 6.56541C18.3 6.56541 20 8.23593 20 10.2013C20 10.2995 20 10.4961 20 10.5943Z" fill="#aaa"/>
</svg>
