<svg width="24" height="25" viewBox="0 0 24 25" fill="none" xmlns="http://www.w3.org/2000/svg">
<path d="M16.2857 3.2998C14.5714 3.2998 13.0476 4.05958 12 5.29422C10.9524 4.05958 9.33333 3.2998 7.61905 3.2998C4.57143 3.2998 2 5.86405 2 8.90316C2 9.0931 2 9.28304 2 9.47299C2.38095 14.1266 7.33333 18.0205 10.2857 19.8249C10.7619 20.1099 11.3333 20.2998 12 20.2998C12.5714 20.2998 13.1429 20.1099 13.7143 19.8249C16.6667 17.9255 21.619 14.1266 22 9.47299C22 9.28304 22 9.0931 22 8.90316C22 5.86405 19.4286 3.2998 16.2857 3.2998Z" fill="#FE587A"/>
</svg>
